<?xml version="1.0" encoding="UTF-8"?>
<svg id="Layer_2" data-name="Layer 2" xmlns="http://www.w3.org/2000/svg" viewBox="0 0 382.75 383.13">
  <defs>
    <style>
      .cls-1 {
        fill: #fff;
        stroke-width: 0px;
      }
    </style>
  </defs>
  <g id="Layer_1-2" data-name="Layer 1">
    <g>
      <path class="cls-1" d="M197.07,0c-.12,9.07-.26,18.14-.34,27.22-.05,5.82,0,11.65,0,17.6h-11.28c0-1.48,0-2.82,0-4.16,0-12.2.01-24.4-.02-36.61,0-1.35-.22-2.7-.33-4.06C189.08,0,193.08,0,197.07,0Z"/>
      <path class="cls-1" d="M382.75,196.88h-45.14v-11.23h45.14v11.23Z"/>
      <path class="cls-1" d="M71.29,158.89c-3.57-.96-6.99-1.88-10.4-2.8,13.57-50.35,51.6-87.36,113.23-99.79-3.07,3.61-5.88,6.87-8.63,10.18-12.77,15.42-23.3,32-27.85,51.87-12.94,56.52,25.58,115.37,82.49,126.54,34.77,6.82,64.78-2.81,91.64-24.69,4.6-3.75,9.15-7.57,14.56-10.91-2.64,8.4-5.05,16.87-7.95,25.17-16.11,46.15-47.9,75.94-95.16,87.84-72.67,18.31-147.16-28.18-163.85-101.27-2.19-9.6-3.54-19.3-3.22-29.46h10.81c1.5,41.03,18.22,74.36,50.9,99.21,22.2,16.88,47.59,24.95,75.46,24.21,57.37-1.51,97.77-40.24,110.46-73.16-56.96,27.52-108.42,21.61-152.81-26.3-33.03-43.67-34.89-89.48-9.52-137.87-35.66,16.6-58.82,43.55-70.15,81.21Z"/>
      <path class="cls-1" d="M325.65,197.32h-10.72c.97-36.63-10.83-68.17-36.65-93.85-25.85-25.71-57.54-37.17-94.02-36.07-.2-2.26-.42-4.23-.53-6.21-.08-1.48-.02-2.96-.02-4.43,77.17-6.65,147.65,61.87,141.93,140.55Z"/>
      <path class="cls-1" d="M10.93,185.81v-11.1h11.26v10.8h11.16v11.4h-11.03v11.05h-11.27v-11.07H0v-11.07h10.93Z"/>
      <path class="cls-1" d="M78.79,22.75v10.85h11.1v11.22h-10.96v11.2h-11.22v-10.94h-11.05v-11.2h10.79v-11.14h11.33Z"/>
      <path class="cls-1" d="M45.04,337.89h11.12v11.13h-10.94v11.06h-11.23v-10.88h-11.13v-11.25h10.93v-11.07h11.26v11.01Z"/>
      <path class="cls-1" d="M185.61,383.13v-44.57h10.78v44.57h-10.78Z"/>
      <path class="cls-1" d="M298,91.13c-2.17-2.25-4.57-4.74-6.71-6.95,10.36-10.37,20.8-20.83,31.26-31.3,2.12,2.15,4.61,4.68,6.9,7.01-10.32,10.24-20.79,20.65-31.45,31.24Z"/>
      <path class="cls-1" d="M291.42,297.04c2.03-2.13,4.51-4.72,6.67-6.99,10.6,10.62,21.06,21.11,31.64,31.72-2.31,2.12-4.86,4.47-7.09,6.52-10.22-10.23-20.67-20.69-31.22-31.25Z"/>
      <path class="cls-1" d="M56.22,303.95h10.66v10.89h-10.66v-10.89Z"/>
      <path class="cls-1" d="M56.35,179.47c.58-4.16,1.09-7.81,1.63-11.66,3.85.68,7.34,1.3,11,1.94-.5,3.72-.94,7.02-1.44,10.68-3.66-.32-7.2-.62-11.19-.97Z"/>
      <path class="cls-1" d="M33.69,68.13v10.72h-10.85v-10.72h10.85Z"/>
    </g>
  </g>
</svg>